<svg width="180" height="172" viewBox="0 0 180 172" fill="none" xmlns="http://www.w3.org/2000/svg">
<path d="M14.4097 152.194C11.7631 152.194 9.60324 154.354 9.60324 157C9.60324 159.647 11.7631 161.807 14.4097 161.807C17.0564 161.807 19.2162 159.647 19.2162 157C19.2162 154.354 17.0564 152.194 14.4097 152.194ZM28.8256 157C28.8256 155.01 28.8436 153.038 28.7318 151.051C28.6201 148.743 28.0936 146.695 26.4061 145.007C24.715 143.316 22.6705 142.794 20.3629 142.682C18.3725 142.57 16.4001 142.588 14.4133 142.588C12.4229 142.588 10.4506 142.57 8.46381 142.682C6.15612 142.794 4.10804 143.32 2.42054 145.007C0.729438 146.699 0.206601 148.743 0.0948225 151.051C-0.0169564 153.041 0.00107251 155.013 0.00107251 157C0.00107251 158.987 -0.0169564 160.963 0.0948225 162.95C0.206601 165.257 0.733044 167.306 2.42054 168.993C4.11165 170.684 6.15612 171.207 8.46381 171.319C10.4542 171.431 12.4266 171.413 14.4133 171.413C16.4037 171.413 18.3761 171.431 20.3629 171.319C22.6705 171.207 24.7186 170.681 26.4061 168.993C28.0972 167.302 28.6201 165.257 28.7318 162.95C28.8472 160.963 28.8256 158.991 28.8256 157ZM14.4097 164.396C10.3172 164.396 7.01429 161.093 7.01429 157C7.01429 152.908 10.3172 149.605 14.4097 149.605C18.5023 149.605 21.8052 152.908 21.8052 157C21.8052 161.093 18.5023 164.396 14.4097 164.396ZM22.108 151.029C21.1525 151.029 20.3809 150.257 20.3809 149.302C20.3809 148.346 21.1525 147.575 22.108 147.575C23.0636 147.575 23.8352 148.346 23.8352 149.302C23.8355 149.529 23.791 149.754 23.7043 149.963C23.6176 150.173 23.4904 150.363 23.33 150.524C23.1695 150.684 22.979 150.812 22.7693 150.898C22.5597 150.985 22.3349 151.029 22.108 151.029Z" fill="#F87D50"/>
<path d="M74.9664 167.567H70.5292V160.604C70.5292 158.943 70.4945 156.81 68.2089 156.81C65.8952 156.81 65.5427 158.611 65.5427 160.481V167.566H61.0998V153.249H65.3673V155.202H65.4245C66.0208 154.074 67.4711 152.888 69.6348 152.888C74.1358 152.888 74.9711 155.852 74.9711 159.705V167.566L74.9664 167.567ZM56.0805 151.292C55.7414 151.293 55.4055 151.226 55.0923 151.096C54.779 150.966 54.4944 150.776 54.2549 150.536C54.0153 150.296 53.8254 150.011 53.6961 149.697C53.5668 149.384 53.5007 149.048 53.5014 148.709C53.502 148.198 53.6539 147.7 53.9379 147.275C54.2219 146.851 54.6253 146.521 55.097 146.326C55.5688 146.131 56.0878 146.081 56.5883 146.181C57.0888 146.281 57.5484 146.527 57.909 146.888C58.2696 147.249 58.515 147.71 58.6141 148.21C58.7133 148.711 58.6617 149.23 58.466 149.701C58.2703 150.173 57.9392 150.575 57.5146 150.859C57.09 151.142 56.5909 151.293 56.0805 151.292ZM58.3061 167.567H53.8539V153.25H58.3061V167.567ZM77.1939 142H51.6227C50.4011 142 49.4102 142.967 49.4102 144.163V169.838C49.4102 171.034 50.4011 172.001 51.6227 172.001H77.1892C78.4089 172.001 79.4102 171.034 79.4102 169.838V144.163C79.4102 142.967 78.4089 142 77.1892 142H77.1939Z" fill="#F87D50"/>
<path d="M104.888 142C101.854 142 99.4102 144.443 99.4102 147.478V166.522C99.4102 169.557 101.854 172 104.888 172H115.21V160.272H112.109V156.049H115.21V152.442C115.21 149.608 117.042 147.005 121.263 147.005C122.972 147.005 124.236 147.169 124.236 147.169L124.137 151.113C124.137 151.113 122.848 151.1 121.441 151.1C119.919 151.1 119.675 151.802 119.675 152.966V156.049H124.258L124.058 160.272H119.675V172H123.932C126.967 172 129.41 169.557 129.41 166.522V147.478C129.41 144.443 126.967 142 123.932 142H104.888L104.888 142Z" fill="#F87D50"/>
<path d="M164 142C149.258 142 149 143.703 149 157C149 170.297 149.258 172 164 172C178.742 172 179 170.297 179 157C179 143.703 178.742 142 164 142ZM168.807 157.651L162.073 161.734C161.483 162.088 161 161.691 161 160.845V153.155C161 152.311 161.483 151.912 162.073 152.266L168.807 156.349C169.397 156.708 169.397 157.292 168.807 157.651Z" fill="#F87D50"/>
<g clip-path="url(#clip0_70_9747)">
<path d="M129.658 23.6V55.0667C129.658 59.391 126.088 62.9333 121.731 62.9333C117.373 62.9333 113.804 59.391 113.804 55.0667V23.6C113.804 19.2756 110.235 15.7333 105.877 15.7333C101.52 15.7333 97.9503 19.2756 97.9503 23.6C97.9503 19.9657 97.1159 16.5154 95.6325 13.4331C94.2882 10.5809 92.3412 8.09669 90.0234 6.02651C91.6923 4.55439 93.5928 3.26628 95.6325 2.3002C96.3742 1.93216 97.1623 1.61014 97.9503 1.33411C100.407 0.460039 103.096 0 105.877 0C108.659 0 111.347 0.460039 113.804 1.33411C114.592 1.61014 115.38 1.93216 116.122 2.3002C121.036 4.64639 124.976 8.55673 127.34 13.4331C128.823 16.5154 129.658 19.9657 129.658 23.6Z" fill="#FB7E4A"/>
<path d="M97.9514 23.6V39.3333C97.9514 41.4955 97.0706 43.4737 95.6336 44.8998C94.1965 46.3259 92.2032 47.2 90.0245 47.2C87.8458 47.2 85.8525 46.3259 84.4155 44.8998C82.9784 43.4737 82.0977 41.4955 82.0977 39.3333V23.6C82.0977 19.9657 82.9321 16.5154 84.4155 13.4331C85.7598 10.5809 87.7067 8.09666 90.0245 6.02649C92.3423 8.09666 94.2893 10.6269 95.6336 13.4331C97.117 16.5154 97.9514 19.9657 97.9514 23.6Z" fill="#D86044"/>
<path d="M50.3906 23.6V55.0667C50.3906 59.391 53.96 62.9333 58.3175 62.9333C62.6749 62.9333 66.2443 59.391 66.2443 55.0667V23.6C66.2443 19.2756 82.0981 19.2756 82.0981 23.6C82.0981 19.9657 82.9325 16.5154 84.4159 13.4331C85.7602 10.5809 87.7071 8.09669 90.0249 6.02651C88.3561 4.55439 86.4555 3.26628 84.4159 2.3002C83.6742 1.93216 82.8861 1.61014 82.0981 1.33411C79.5949 0.460039 76.9526 0 74.1712 0C71.3899 0 68.7012 0.460039 66.2443 1.33411C65.4563 1.61014 64.6682 1.93216 63.9265 2.3002C59.0128 4.64639 55.0726 8.55673 52.7084 13.4331C51.1787 16.5154 50.3906 19.9657 50.3906 23.6Z" fill="#49B981"/>
<path d="M4.58924 118C3.29127 118 2.22508 117.632 1.29797 116.896C0.463559 116.16 0 115.194 0 114.044V90.9957C0 89.8916 0.417203 88.9715 1.29797 88.1894C2.13237 87.4074 3.24491 87.0393 4.63559 87.0393C6.21169 87.0393 7.41695 87.5914 8.205 88.6495C8.52949 89.0635 8.76127 89.4776 8.80762 89.8456C9.64203 88.8335 10.7082 88.0054 12.0989 87.4074C13.4432 86.8093 15.0193 86.4873 16.6881 86.4873C21.3237 86.4873 24.6613 88.0054 26.701 91.0417C27.9063 89.5696 29.436 88.4195 31.1975 87.6374C32.9591 86.8553 34.8133 86.4873 36.7139 86.4873C40.5151 86.4873 43.5282 87.5914 45.7533 89.8456C47.9784 92.0998 49.0909 95.6421 49.0909 100.518V114.228C49.0909 115.332 48.6737 116.206 47.7929 116.896C46.9585 117.586 45.846 117.954 44.548 117.954C43.2501 117.954 42.1839 117.586 41.3495 116.85C40.5151 116.114 40.0515 115.148 40.0515 113.998V101.669C40.0515 99.1844 39.5879 97.3902 38.7072 96.2861C37.8264 95.182 36.5748 94.676 34.906 94.676C33.2835 94.676 31.9392 95.182 30.9657 96.1481C29.9923 97.1142 29.2969 98.3103 28.9724 99.6444V114.274C28.9724 115.378 28.5552 116.252 27.6745 116.942C26.8401 117.632 25.7275 118 24.4296 118C23.1316 118 22.0654 117.632 21.1847 116.896C20.3502 116.16 19.8867 115.194 19.8867 114.044V101.669C19.8867 99.1844 19.4231 97.3902 18.5424 96.2861C17.6616 95.182 16.41 94.676 14.7412 94.676C13.1651 94.676 11.8671 95.182 10.8473 96.1481C9.82745 97.1142 9.13211 98.2643 8.80762 99.5524V113.952C8.80762 115.102 8.39042 116.068 7.50966 116.85C6.86068 117.632 5.84084 118 4.58924 118Z" fill="#49B981"/>
<path d="M61.4676 118C60.1697 118 59.0571 117.632 58.1764 116.896C57.2956 116.16 56.832 115.194 56.832 114.044V90.4895C56.832 89.3854 57.2492 88.4654 58.13 87.6833C58.9644 86.9012 60.077 86.5332 61.4676 86.5332C62.812 86.5332 63.9245 86.9472 64.6662 87.6833C65.4542 88.4654 65.8251 89.4314 65.8251 90.5815V113.952C65.8251 115.102 65.4079 116.068 64.5271 116.85C63.7391 117.632 62.6729 118 61.4676 118Z" fill="#49B981"/>
<path d="M99.8057 118C98.5077 118 97.4415 117.632 96.5607 116.896C95.7263 116.16 95.2628 115.194 95.2628 114.044V101.669C95.2628 99.1844 94.7065 97.3903 93.594 96.2862C92.4814 95.1821 91.0907 94.676 89.4683 94.676C87.7531 94.676 86.3624 95.2281 85.2035 96.2862C84.091 97.3903 83.3957 98.6324 83.1175 100.058V113.952C83.1175 115.102 82.7003 116.068 81.8196 116.85C80.9852 117.632 79.919 118 78.7137 118C77.4158 118 76.3496 117.632 75.4224 116.896C74.5417 116.16 74.0781 115.194 74.0781 114.044V90.9957C74.0781 89.8916 74.4953 88.9715 75.3761 88.1895C76.2105 87.4074 77.323 87.0394 78.7137 87.0394C79.8263 87.0394 80.707 87.3154 81.4951 87.9135C82.2368 88.5115 82.7467 89.2016 83.0248 90.1216C84.8791 87.7754 87.6604 86.5793 91.4152 86.5793C95.2164 86.5793 98.3223 87.6834 100.733 89.9376C103.097 92.1918 104.302 95.7341 104.302 100.611V114.32C104.302 115.424 103.885 116.298 103.004 116.988C102.216 117.632 101.104 118 99.8057 118Z" fill="#49B981"/>
<path d="M137.677 118C136.379 118 135.313 117.632 134.432 116.896C133.597 116.16 133.134 115.194 133.134 114.044V101.669C133.134 99.1844 132.578 97.3903 131.465 96.2862C130.353 95.1821 128.962 94.676 127.339 94.676C125.624 94.676 124.234 95.2281 123.075 96.2862C121.962 97.3903 121.267 98.6324 120.989 100.058V113.952C120.989 115.102 120.571 116.068 119.691 116.85C118.856 117.632 117.79 118 116.585 118C115.287 118 114.221 117.632 113.294 116.896C112.413 116.16 111.949 115.194 111.949 114.044V90.9957C111.949 89.8916 112.366 88.9715 113.247 88.1895C114.082 87.4074 115.194 87.0394 116.585 87.0394C117.697 87.0394 118.578 87.3154 119.366 87.9135C120.108 88.5115 120.618 89.2016 120.896 90.1216C122.75 87.7754 125.532 86.5793 129.286 86.5793C133.088 86.5793 136.193 87.6834 138.604 89.9376C140.968 92.1918 142.173 95.7341 142.173 100.611V114.32C142.173 115.424 141.756 116.298 140.875 116.988C140.041 117.632 138.975 118 137.677 118Z" fill="#49B981"/>
<path d="M163.125 118C158.536 118 154.874 116.574 152.046 113.676C149.218 110.823 147.781 106.959 147.781 102.175C147.781 97.3441 149.172 93.5718 151.907 90.7656C154.688 87.9593 158.304 86.5332 162.801 86.5332C165.999 86.5332 168.78 87.6373 171.191 89.8915C171.469 89.0634 171.979 88.4194 172.721 87.8673C173.462 87.3153 174.343 87.0392 175.363 87.0392C176.707 87.0392 177.82 87.4533 178.701 88.1893C179.535 88.9714 179.999 89.8915 179.999 90.9956V114.044C179.999 115.194 179.581 116.16 178.701 116.896C177.866 117.632 176.754 118 175.363 118C173.092 118 171.701 117.034 171.191 115.056C169.012 117.034 166.324 118 163.125 118ZM163.867 109.765C166.045 109.765 167.807 109.029 169.105 107.603C170.403 106.131 171.052 104.337 171.052 102.175C171.052 99.9203 170.403 98.1262 169.105 96.7921C167.807 95.458 166.092 94.7679 163.867 94.7679C161.734 94.7679 160.019 95.458 158.721 96.7921C157.423 98.1262 156.728 99.9203 156.728 102.175C156.728 104.337 157.377 106.131 158.721 107.603C160.019 109.075 161.734 109.765 163.867 109.765Z" fill="#49B981"/>
</g>
<defs>
<clipPath id="clip0_70_9747">
<rect width="180" height="118" fill="white"/>
</clipPath>
</defs>
</svg>
