<svg width="685" height="508" viewBox="0 0 685 508" fill="none" xmlns="http://www.w3.org/2000/svg">
<path d="M223.319 467.861L223.309 467.856C143.383 429.715 78.3136 364.671 40.1579 284.775L40.1531 284.765C15.6615 234.195 2.40304 177.187 1.99997 117.346C1.99997 117.343 1.99991 117.34 1.99991 117.337L2.00002 -403.649C2.00002 -474.378 59.6429 -532 130.401 -532C201.158 -532 258.801 -474.378 258.801 -403.649L258.801 117.351C258.801 190.29 318.236 249.702 391.202 249.702C464.165 249.702 523.609 190.29 523.199 117.34L523.199 -142.947C523.199 -178.29 537.893 -210.081 560.971 -233.551C584.023 -256.591 616.218 -270.895 651.599 -270.895C686.984 -270.895 719.181 -256.588 742.233 -233.545L742.239 -233.539L742.245 -233.533C765.69 -210.494 780 -178.316 780 -142.947L780 117.351C780 177.174 766.344 234.185 742.248 284.771C719.756 331.342 688.426 372.701 650.661 407.241C623.362 431.719 592.444 452.191 559.11 468.252C546.607 473.896 533.769 479.509 520.953 483.913L520.942 483.916L520.931 483.92C480.375 498.37 436.597 506 391.202 506C345.806 506 302.035 498.37 261.489 483.522L261.461 483.512L261.433 483.503C248.205 479.095 235.77 473.883 223.319 467.861Z" fill="#F87D50" stroke="#F87D50" stroke-width="4"/>
</svg>
